<svg xmlns="http://www.w3.org/2000/svg" width="40" height="38" viewBox="0 0 40 38" fill="none"><path d="M23.2472 5.70155V10.2485C23.2472 10.5009 23.0898 10.7164 22.8651 10.7997C21.6314 11.3509 20.3127 11.6278 18.9956 11.6278C17.6643 11.6278 16.3312 11.3467 15.0908 10.7854C14.8711 10.6878 14.7424 10.4732 14.7424 10.2485V5.70155C14.7424 5.28666 15.1716 4.97192 15.6033 5.17894C16.6813 5.66115 17.836 5.90184 18.9956 5.90184C20.162 5.90184 21.3309 5.6561 22.4165 5.16716C22.8087 4.99043 23.2472 5.28413 23.2472 5.70155ZM22.069 9.85968V6.56751C20.0745 7.25254 17.9159 7.25254 15.9214 6.56751V9.85968C17.8923 10.644 20.0989 10.644 22.069 9.85968ZM15.5898 0H22.5722C24.5305 0 26.1312 1.60064 26.1312 3.56147V11.4931C30.2439 12.9027 33.4813 16.0948 34.7597 20.1048C35.7476 23.2034 35.4489 26.5292 33.6311 29.2003H38.4591C38.784 29.2003 39.0482 29.4654 39.0482 29.7894V36.6624C39.0482 36.9873 38.7831 37.2515 38.4591 37.2515H0.58909C0.262566 37.2515 0 36.9864 0 36.6624V29.7894C0 29.4646 0.262566 29.2003 0.58909 29.2003H4.34412C3.64478 28.1551 3.17519 27.0131 2.92441 25.8249C2.56675 24.1266 2.65511 22.3349 3.14658 20.6055C3.7525 18.468 4.9736 16.4213 6.72993 14.7441C8.24978 13.2747 9.98339 12.1942 12.0284 11.4923V3.56147C12.0284 1.60064 13.629 0 15.5898 0ZM26.132 12.7437V13.5162C26.132 16.6603 23.5627 19.2321 20.4187 19.2321H17.7442C14.6002 19.2321 12.0284 16.6603 12.0284 13.5162V12.7437C10.3057 13.39 8.84139 14.3351 7.54876 15.5898C5.93129 17.1619 4.844 18.9392 4.281 20.9236C3.84002 22.4763 3.75839 24.0753 4.07818 25.5875C4.39293 27.088 5.10657 28.5052 6.25108 29.7053C7.46292 30.9769 9.16624 32.0069 11.4065 32.644C12.2076 32.8249 12.9356 32.5935 13.4413 32.1576C13.9236 31.7469 14.2408 31.1199 14.1592 30.4921C14.0969 30.0032 13.7796 29.5117 13.1216 29.1347C11.5706 28.4194 10.373 27.4768 9.44563 26.3533C8.5174 25.2299 7.86603 23.9297 7.41075 22.4982C7.31313 22.1902 7.48228 21.8611 7.79282 21.7635C8.10083 21.6659 8.42987 21.835 8.53002 22.1456C9.05683 23.8034 9.87567 25.2686 11.1279 26.4274C11.9703 24.9437 12.7403 23.4912 13.6181 21.9714C13.783 21.6903 14.1407 21.5943 14.4218 21.7568L18.1381 23.9011L17.9159 22.207C17.8511 21.7181 18.3838 21.3865 18.7911 21.623H18.7936L20.8639 22.8298L22.3644 20.3295C22.6126 19.9146 23.2211 19.9643 23.4096 20.3985L24.5709 23.0991L27.0594 21.2308C27.4987 20.9043 28.092 21.3074 27.9851 21.8199H27.9877L27.3843 24.6778L29.3712 24.0147C29.7532 23.8884 30.142 24.1796 30.142 24.5726V26.6504L31.7805 26.557C32.1643 26.5351 32.4723 26.8835 32.3839 27.2774L31.9783 29.2003H32.1618C34.2017 26.748 34.609 23.4946 33.6404 20.4574C32.5177 16.933 29.712 14.0893 26.132 12.7437ZM22.5722 1.17902H15.5898C14.2804 1.17902 13.2066 2.25285 13.2066 3.56231V13.5171C13.2066 16.0098 15.2482 18.0548 17.7442 18.0548H20.4187C22.9114 18.0548 24.9564 16.0106 24.9564 13.5171V3.56147C24.9555 2.25201 23.8817 1.17902 22.5722 1.17902ZM19.4164 30.3794L19.6116 30.6874C19.7884 30.9617 19.7143 31.3126 19.4231 31.5054L18.6716 32.0322L19.9954 32.8838C20.4204 33.1582 20.3362 33.8289 19.8001 33.9551L18.5521 34.2791L19.3247 35.0517C19.5628 35.2898 19.5586 35.6669 19.291 35.9151L19.1311 36.0725H37.8692V30.3785H19.4164V30.3794ZM17.4699 36.0742L18.0758 35.4708L16.9927 34.3877L16.9952 34.3852C16.678 34.0704 16.8185 33.5167 17.262 33.4022L18.2357 33.1498L17.3032 32.5489V32.5464C16.9574 32.3242 16.938 31.8142 17.2839 31.5727L18.319 30.8473L18.0186 30.3794H15.3281C15.5621 32.4025 13.5339 34.2749 11.2323 33.8095L10.3065 35.4102C10.1441 35.6896 9.78646 35.7872 9.50707 35.6248L7.25001 34.322C6.96893 34.1596 6.87047 33.802 7.03289 33.5209L7.71287 32.3452C6.76612 31.7797 5.95233 31.1191 5.27235 30.3794H1.17902V36.0733H17.4699V36.0742ZM14.9006 29.2012H16.5963L15.504 28.5288C15.0933 28.2738 15.1531 27.6603 15.5949 27.4836L16.2959 27.2025L15.3584 26.663L14.2871 28.5187C14.5379 28.7291 14.7407 28.9605 14.9006 29.2012ZM17.9613 29.2012H30.7766L31.0795 27.7747L29.5866 27.8606V27.8581C29.25 27.8774 28.9689 27.6073 28.9689 27.274V25.3872L26.817 26.1026C26.3399 26.2793 25.9317 25.8661 26.0226 25.4394L26.5141 23.1091L24.7182 24.4573C24.3959 24.7199 23.9457 24.6197 23.7858 24.2495L22.7835 21.9167L21.5859 23.9137C21.4143 24.2116 21.0566 24.3025 20.7747 24.1401L19.2363 23.2404L19.4198 24.6408L20.2234 25.1062C20.5028 25.2686 20.5979 25.6262 20.4355 25.9056L20.0779 26.5284L21.1273 27.1343C21.4084 27.2967 21.5068 27.6544 21.3444 27.9355C21.182 28.2166 20.8243 28.3125 20.5432 28.1526L19.4913 27.5441L19.1336 28.1644C18.9737 28.4438 18.6136 28.5414 18.3342 28.379L17.5919 27.9523L17.1147 28.1433L17.6702 28.4867C17.8898 28.6011 18.0236 28.8494 17.9782 29.1069L17.9613 29.2012ZM13.2806 27.9085L14.633 25.5657C14.7996 25.277 15.1649 25.1836 15.4678 25.3704L18.4091 27.0687L19.1244 25.8282L14.3435 23.0679C13.5398 24.48 12.8809 25.7205 12.0486 27.1756C12.429 27.4406 12.8371 27.6838 13.2806 27.9085ZM8.7463 32.899L8.34319 33.6L9.58365 34.3153L10.0802 33.4544C9.61226 33.2853 9.16792 33.1018 8.7463 32.899Z" fill="#ED1C24"></path></svg>