<svg xmlns="http://www.w3.org/2000/svg" width="38" height="38" viewBox="0 0 38 38" fill="none"><path d="M17.6533 7.88381C12.3383 7.88381 8.01425 12.2079 8.01425 17.523C8.01425 19.3465 8.52609 21.1221 9.49457 22.6575C9.73196 23.0339 9.95836 23.3866 10.1773 23.7277C11.4844 25.7639 12.4313 27.2396 13.0622 29.65V33.8047C13.0622 34.4501 13.5873 34.9751 14.2328 34.9751H14.4993V36.5771C14.4993 37.2138 15.0173 37.7317 15.6541 37.7317H19.6527C20.2894 37.7317 20.8074 37.2138 20.8074 36.5771V34.9751H21.0739C21.7194 34.9751 22.2445 34.4501 22.2445 33.8047V29.65C22.8754 27.2396 23.8223 25.7639 25.1294 23.7277C25.3483 23.3866 25.5747 23.0339 25.8121 22.6576C26.7806 21.1221 27.2924 19.3465 27.2924 17.523C27.2924 12.2079 22.9684 7.88381 17.6533 7.88381ZM19.9227 36.5771C19.9227 36.7234 19.799 36.8471 19.6527 36.8471H15.6541C15.5077 36.8471 15.384 36.7234 15.384 36.5771V34.9751H19.9227V36.5771ZM21.0739 34.0905H14.2327C14.0777 34.0905 13.9468 33.9596 13.9468 33.8047V30.0345H21.3598V33.8047C21.3598 33.9596 21.2289 34.0905 21.0739 34.0905ZM25.0637 22.1857C24.8283 22.559 24.6029 22.9102 24.3849 23.2498C23.0831 25.2777 22.1267 26.7676 21.4629 29.1499H20.2328V26.285H21.2111C21.4553 26.285 21.6534 26.0869 21.6534 25.8427C21.6534 25.5984 21.4553 25.4003 21.2111 25.4003H19.7904C19.5462 25.4003 19.3481 25.5984 19.3481 25.8427V29.1499H18.0956V24.5468H18.308C18.7771 24.5468 19.1897 24.247 19.3345 23.801L19.5351 23.184C19.8057 23.094 20.0701 22.9843 20.3251 22.8564L20.9036 23.1512C21.3215 23.3641 21.8253 23.2843 22.157 22.9526L23.0831 22.0266C23.4145 21.6948 23.4942 21.1912 23.2813 20.7734L22.9866 20.1948C23.1145 19.9397 23.2242 19.6753 23.3141 19.4049L23.9312 19.2043C24.3773 19.0594 24.6771 18.6468 24.6771 18.1777V16.8683C24.6771 16.399 24.3773 15.9865 23.9312 15.8417L23.3141 15.6412C23.2242 15.3708 23.1146 15.1065 22.9866 14.8512L23.2814 14.2727C23.4943 13.8547 23.4144 13.351 23.0828 13.0194L22.1569 12.0935C21.8252 11.7617 21.3214 11.6819 20.9036 11.8949L20.3249 12.1897C20.0698 12.0618 19.8054 11.9521 19.535 11.8623L19.3345 11.2451C19.1896 10.7989 18.7771 10.4991 18.3079 10.4991H16.9985C16.5294 10.4991 16.1168 10.7988 15.9718 11.245L15.7713 11.8621C15.5008 11.9521 15.2364 12.0618 14.9813 12.1897L14.4028 11.8949C13.985 11.6821 13.4813 11.7617 13.1495 12.0934L12.2235 13.0193C11.8918 13.351 11.8121 13.8547 12.025 14.2726L12.3198 14.8513C12.1918 15.1065 12.0821 15.3707 11.9923 15.6412L11.3754 15.8417C10.9291 15.9864 10.6293 16.399 10.6293 16.8683V18.1778C10.6293 18.647 10.929 19.0596 11.3751 19.2043L11.9923 19.4049C12.0823 19.6754 12.1919 19.9397 12.3198 20.1947L12.0251 20.7734C11.8121 21.1914 11.8919 21.6951 12.2236 22.0268L13.1495 22.9526C13.4812 23.2844 13.985 23.3642 14.4029 23.1512L14.9812 22.8564C15.2365 22.9844 15.5009 23.0941 15.7713 23.1839L15.9718 23.8009C16.1168 24.2472 16.5293 24.5469 16.9985 24.5469H17.2109V29.15H15.9583V25.8427C15.9583 25.5985 15.7602 25.4004 15.516 25.4004H14.0954C13.8511 25.4004 13.6531 25.5985 13.6531 25.8427C13.6531 26.087 13.8511 26.2851 14.0954 26.2851H15.0737V29.15H13.8436C13.1797 26.7677 12.2233 25.2778 10.9215 23.2499C10.7035 22.9103 10.4782 22.5592 10.2427 22.1857C9.36342 20.7917 8.89876 19.1794 8.89876 17.523C8.89876 12.6958 12.826 8.76855 17.6532 8.76855C22.4804 8.76855 26.4076 12.6958 26.4076 17.523C26.4076 19.1793 25.9429 20.7916 25.0637 22.1858L25.0637 22.1857ZM13.2053 19.9773C13.0224 19.6466 12.8765 19.2949 12.7719 18.9323C12.7312 18.7912 12.6232 18.6795 12.4835 18.6342L11.6486 18.3629C11.5644 18.3355 11.5142 18.2663 11.5142 18.1777V16.8683C11.5142 16.7796 11.5645 16.7104 11.6488 16.683L12.4837 16.4116C12.6233 16.3663 12.7313 16.2545 12.772 16.1135C12.8764 15.7511 13.0222 15.3996 13.2053 15.0686C13.2764 14.94 13.2791 14.7845 13.2123 14.6535L12.8135 13.871C12.7733 13.7921 12.7867 13.7075 12.8493 13.6449L13.7752 12.719C13.8379 12.6562 13.9226 12.6429 14.0014 12.6831L14.7843 13.0821C14.915 13.1486 15.0705 13.146 15.199 13.075C15.5299 12.892 15.8815 12.7462 16.244 12.6416C16.385 12.6009 16.4967 12.4929 16.5421 12.3533L16.8133 11.5184C16.8408 11.434 16.9101 11.3837 16.9987 11.3837H18.3081C18.3967 11.3837 18.466 11.434 18.4934 11.5183L18.7648 12.3535C18.8102 12.4931 18.9219 12.601 19.063 12.6417C19.4252 12.7462 19.7768 12.8919 20.1078 13.0749C20.2363 13.1459 20.3917 13.1486 20.5227 13.0819L21.3053 12.6831C21.3842 12.6429 21.4689 12.6562 21.5316 12.7189L22.4575 13.6449C22.5201 13.7075 22.5335 13.792 22.4933 13.871L22.0945 14.6536C22.0279 14.7844 22.0305 14.9399 22.1015 15.0684C22.2846 15.3996 22.4304 15.7512 22.5348 16.1134C22.5755 16.2545 22.6836 16.3662 22.8231 16.4115L23.6582 16.6829C23.7424 16.7103 23.7926 16.7795 23.7926 16.8681V18.1775C23.7926 18.2662 23.7423 18.3355 23.6581 18.3628L22.8231 18.6341C22.6834 18.6794 22.5755 18.7912 22.5348 18.9323C22.4304 19.2948 22.2846 19.6463 22.1015 19.9771C22.0304 20.1057 22.0277 20.2612 22.0945 20.3921L22.4933 21.1748C22.5335 21.2537 22.5201 21.3384 22.4575 21.4009L21.5316 22.3269C21.4689 22.3896 21.3843 22.4031 21.3054 22.3627L20.5225 21.9638C20.3918 21.8971 20.2363 21.8999 20.1077 21.971C19.7769 22.154 19.4253 22.2998 19.0629 22.4042C18.9217 22.4449 18.8099 22.553 18.7646 22.6927L18.4933 23.5275C18.466 23.6117 18.3967 23.6619 18.3081 23.6619L16.9987 23.6621C16.9101 23.6621 16.8408 23.6117 16.8134 23.5274L16.5422 22.6925C16.4968 22.5527 16.385 22.4447 16.2438 22.4041C15.8816 22.2998 15.5301 22.1541 15.1991 21.971C15.1326 21.9342 15.0589 21.9157 14.985 21.9157C14.9162 21.9157 14.8474 21.9317 14.7843 21.9638L14.0015 22.3627C13.9226 22.403 13.8379 22.3896 13.7752 22.3269L12.8493 21.401C12.7867 21.3383 12.7733 21.2537 12.8136 21.1748L13.2123 20.3923C13.2791 20.2614 13.2764 20.1058 13.2053 19.9772V19.9773ZM4.56762 18.1439H1.32734C1.0831 18.1439 0.88501 17.9458 0.88501 17.7016C0.88501 17.4574 1.0831 17.2593 1.32734 17.2593H4.56762C4.81186 17.2593 5.00995 17.4574 5.00995 17.7016C5.00995 17.9458 4.81186 18.1439 4.56762 18.1439ZM28.6681 11.2667C28.5461 11.0551 28.6184 10.7845 28.83 10.6625L31.6362 9.04235C31.848 8.92027 32.1183 8.99273 32.2404 9.20424C32.3625 9.41582 32.2901 9.68638 32.0785 9.80846L29.2724 11.4286C29.2027 11.4687 29.1266 11.4879 29.0516 11.4879C28.8987 11.4879 28.75 11.4086 28.6681 11.2667ZM23.8785 5.90402L25.4986 3.09789C25.6208 2.88638 25.8912 2.81384 26.1028 2.936C26.3144 3.05815 26.3869 3.32864 26.2647 3.54022L24.6446 6.34635C24.5627 6.48827 24.414 6.56759 24.2611 6.56759C24.1861 6.56759 24.1101 6.5485 24.0404 6.50825C23.8288 6.38609 23.7564 6.1156 23.8785 5.90402ZM3.06621 9.20431C3.18836 8.99281 3.4587 8.92034 3.67043 9.04242L6.47656 10.6625C6.68814 10.7847 6.76061 11.0552 6.63846 11.2667C6.55655 11.4087 6.40786 11.488 6.25496 11.488C6.17991 11.488 6.1039 11.4689 6.03423 11.4286L3.2281 9.80854C3.01652 9.68638 2.94405 9.41582 3.06621 9.20431ZM9.042 3.54022C8.91992 3.32864 8.99231 3.05808 9.20389 2.936C9.41569 2.81391 9.68603 2.88646 9.80811 3.09789L11.4282 5.90402C11.5503 6.1156 11.4779 6.38616 11.2663 6.50825C11.1967 6.54842 11.1206 6.56759 11.0456 6.56759C10.8927 6.56759 10.744 6.48827 10.6621 6.34635L9.042 3.54022ZM17.2111 4.25886V1.0185C17.2111 0.774262 17.4092 0.576172 17.6534 0.576172C17.8976 0.576172 18.0957 0.774262 18.0957 1.0185V4.25878C18.0957 4.50302 17.8976 4.70111 17.6534 4.70111C17.4092 4.70111 17.2111 4.50309 17.2111 4.25886ZM32.062 26.151C31.9801 26.293 31.8314 26.3723 31.6785 26.3723C31.6034 26.3723 31.5274 26.3531 31.4578 26.3129L28.6516 24.6928C28.44 24.5706 28.3676 24.3001 28.4897 24.0885C28.6118 23.877 28.8823 23.8046 29.0939 23.9266L31.9001 25.5468C32.1117 25.669 32.1841 25.9395 32.062 26.151ZM34.4217 17.7016C34.4217 17.9458 34.2236 18.1439 33.9794 18.1439H30.7391C30.4949 18.1439 30.2968 17.9458 30.2968 17.7016C30.2968 17.4574 30.4949 17.2593 30.7391 17.2593H33.9794C34.2236 17.2593 34.4217 17.4574 34.4217 17.7016ZM6.81716 24.0885C6.93924 24.3001 6.86685 24.5706 6.65526 24.6928L3.84913 26.3129C3.77954 26.3531 3.70338 26.3723 3.62841 26.3723C3.47551 26.3723 3.32681 26.293 3.24491 26.151C3.12283 25.9395 3.19522 25.669 3.4068 25.5468L6.21294 23.9266C6.42459 23.8046 6.69507 23.877 6.81716 24.0885ZM17.6533 21.278C18.6154 21.278 19.5775 20.9118 20.3098 20.1795C21.7745 18.7147 21.7745 16.3313 20.3098 14.8666C18.8451 13.4018 16.4617 13.4019 14.997 14.8666C13.5324 16.3313 13.5324 18.7147 14.997 20.1795C15.7293 20.9119 16.6913 21.278 17.6533 21.278ZM15.6225 15.4921C16.1824 14.9322 16.9179 14.6523 17.6533 14.6523C18.3888 14.6523 19.1243 14.9322 19.6843 15.4921C20.804 16.6119 20.804 18.4342 19.6843 19.5539C18.5645 20.6736 16.7425 20.6738 15.6225 19.5539C14.5028 18.434 14.5028 16.6118 15.6225 15.492L15.6225 15.4921Z" fill="#ED1C24"></path></svg>