<svg xmlns="http://www.w3.org/2000/svg" width="44" height="31" viewBox="0 0 44 31" fill="none"><path d="M42.6585 22.0519H37.1707C36.7485 22.0519 36.4051 21.7085 36.4051 21.2864V14.5221C36.4051 14.0999 36.7485 13.7565 37.1707 13.7565H42.6585C43.0088 13.7565 43.2927 13.4726 43.2927 13.1223C43.2927 12.772 43.0088 12.4881 42.6585 12.4881H37.1707C36.2706 12.4881 35.5057 13.076 35.2385 13.888H32.9361C32.0842 13.888 31.3911 14.581 31.3911 15.4329V16.1424H23.4154L26.7624 10.9207C26.9514 10.6259 26.8655 10.2336 26.5706 10.0446C26.2758 9.85572 25.8836 9.94146 25.6945 10.2364L21.9089 16.1425C20.9563 16.1426 20.0609 16.5136 19.3872 17.187L15.052 21.5214C14.7191 21.8544 14.5359 22.297 14.5359 22.7678C14.5359 23.2385 14.7193 23.6812 15.0522 24.0139C15.3957 24.3573 15.8467 24.5288 16.298 24.5288C16.7491 24.5288 17.2004 24.3571 17.5439 24.0136C17.7916 23.766 17.7916 23.3644 17.544 23.1168C17.2963 22.8693 16.8948 22.8691 16.6472 23.1168C16.4546 23.3093 16.1414 23.3092 15.9488 23.1168C15.8555 23.0236 15.8041 22.8996 15.8041 22.7676C15.8041 22.6356 15.8555 22.5116 15.9487 22.4183L20.2838 18.0839C20.718 17.6498 21.2952 17.4107 21.9093 17.4107H31.391V18.3977H22.8438C21.8908 18.3977 20.9951 18.7688 20.3214 19.4424L18.8576 20.9063C18.6099 21.154 18.6099 21.5555 18.8576 21.8032C19.1053 22.0508 19.5068 22.0508 19.7544 21.8032L21.2183 20.3393C21.6524 19.9051 22.2297 19.6659 22.8438 19.6659H31.391V20.3754C31.391 21.2273 32.0841 21.9205 32.936 21.9205H35.2385C35.5056 22.7323 36.2705 23.3202 37.1706 23.3202H42.6585C43.0088 23.3202 43.2927 23.0363 43.2927 22.686C43.2927 22.3357 43.0088 22.0519 42.6585 22.0519ZM32.6593 20.3755V15.433C32.6593 15.2804 32.7834 15.1564 32.936 15.1564H35.1366V20.6523H32.936C32.7834 20.6522 32.6593 20.5281 32.6593 20.3755Z" fill="#ED1C24"></path><path d="M42.6586 26.96C43.0089 26.96 43.2928 26.6761 43.2928 26.3258C43.2928 25.9755 43.0089 25.6917 42.6586 25.6917H13.2352C12.0907 25.6917 11.1595 26.6229 11.1595 27.7674V29.3942H0.634171C0.283855 29.3942 0 29.6781 0 30.0284C0 30.3787 0.283855 30.6625 0.634171 30.6625H42.6586C43.0089 30.6625 43.2928 30.3787 43.2928 30.0284C43.2928 29.6781 43.0089 29.3942 42.6586 29.3942H16.1307V26.96H42.6586ZM12.4279 29.3942V27.7674C12.4279 27.3221 12.7901 26.96 13.2353 26.96H14.8624V29.3942H12.4279Z" fill="#ED1C24"></path><path d="M16.3491 15.3885C16.6995 15.3885 16.9833 15.1046 16.9833 14.7543V0.634171C16.9833 0.283855 16.6995 0 16.3491 0C15.9988 0 15.715 0.283855 15.715 0.634171V14.7543C15.715 15.1046 15.9988 15.3885 16.3491 15.3885Z" fill="#ED1C24"></path><path d="M5.14921 21.7374L8.40065 23.1736C8.48394 23.2104 8.57095 23.2279 8.65652 23.2279C8.89996 23.2279 9.13223 23.0868 9.23691 22.8497C9.37846 22.5293 9.23345 22.1549 8.91306 22.0134L5.66162 20.5772C5.34158 20.4356 4.96691 20.5807 4.82528 20.901C4.6839 21.2215 4.82883 21.5958 5.14921 21.7374Z" fill="#ED1C24"></path><path d="M1.09444 19.9464L2.45672 20.5481C2.54001 20.585 2.62702 20.6024 2.71259 20.6024C2.95603 20.6024 3.1883 20.4614 3.29298 20.2243C3.43453 19.9039 3.28952 19.5295 2.96913 19.3879L1.60685 18.7862C1.2868 18.6447 0.912052 18.7895 0.770505 19.11C0.629042 19.4304 0.774056 19.8048 1.09444 19.9464Z" fill="#ED1C24"></path><path d="M24.0417 23.2277C24.1273 23.2277 24.2143 23.2103 24.2976 23.1734L26.8483 22.0468C27.1687 21.9052 27.3137 21.5308 27.1721 21.2104C27.0307 20.8901 26.6563 20.7449 26.3358 20.8866L23.7851 22.0132C23.4647 22.1548 23.3197 22.5292 23.4612 22.8496C23.566 23.0866 23.7982 23.2277 24.0417 23.2277Z" fill="#ED1C24"></path><path d="M11.2774 19.2538C11.3985 19.4427 11.6031 19.5459 11.8118 19.5459C11.929 19.5459 12.0475 19.5134 12.1534 19.4455C12.4483 19.2565 12.5342 18.8642 12.3452 18.5694L7.57929 11.134C7.39023 10.8392 6.99797 10.7535 6.70321 10.9423C6.40836 11.1313 6.32245 11.5236 6.51143 11.8184L11.2774 19.2538Z" fill="#ED1C24"></path><path d="M5.51772 9.72708C5.86796 9.72708 6.15189 9.44315 6.15189 9.09291C6.15189 8.74267 5.86796 8.45874 5.51772 8.45874C5.16747 8.45874 4.88354 8.74267 4.88354 9.09291C4.88354 9.44315 5.16747 9.72708 5.51772 9.72708Z" fill="#ED1C24"></path><path d="M16.3491 18.2161C16.6994 18.2161 16.9833 17.9322 16.9833 17.5819C16.9833 17.2317 16.6994 16.9478 16.3491 16.9478C15.9989 16.9478 15.715 17.2317 15.715 17.5819C15.715 17.9322 15.9989 18.2161 16.3491 18.2161Z" fill="#ED1C24"></path></svg>