<svg xmlns="http://www.w3.org/2000/svg" width="53" height="26" viewBox="0 0 53 26" fill="none"><path d="M52.6353 11.5587C52.4738 8.96853 47.654 8.50908 44.8046 8.07592C40.13 7.48627 39.2524 7.22337 38.7717 6.97549C36.8099 4.95991 33.9543 1.35942 31.1713 0.550685C28.0853 -0.295606 23.0201 0.04241 21.936 0.208914C20.6027 0.414227 20.0957 2.33716 20.0744 7.44621H2.64278C1.45973 7.44621 0.930169 8.44773 0.930169 9.43174V16.5902C0.646456 16.7674 0.412315 17.0136 0.249642 17.3059C0.0869693 17.5982 0.00107789 17.927 0 18.2615V19.7487C0.000662541 20.2735 0.209405 20.7765 0.580446 21.1476C0.951488 21.5186 1.45454 21.7273 1.97927 21.728H4.6546C6.24077 27.4868 14.442 27.2539 15.6864 21.4H37.8628C39.1147 27.2765 47.3497 27.483 48.9034 21.6942C48.9647 21.753 50.9878 21.7217 51.1205 21.728C51.2625 21.7276 51.403 21.6986 51.5336 21.6426C51.6642 21.5867 51.7821 21.505 51.8804 21.4025C52.1834 21.0933 52.5602 20.7077 52.6441 15.9317C52.6766 13.7058 52.6353 11.6263 52.6353 11.5587ZM50.7574 11.6426C50.7662 12.0507 50.7725 12.4676 50.7762 12.8883H49.1112C49.0231 12.3853 48.9675 11.8773 48.9447 11.3672C49.0361 11.2495 49.3703 11.073 49.6695 10.9816C50.6448 11.3422 50.7474 11.6151 50.7574 11.6426ZM22.4467 2.0342C23.8877 1.86519 28.2118 1.68742 30.6705 2.36095C32.8877 3.03823 35.6607 6.46846 37.3357 8.20486C37.2994 10.6924 36.9601 13.6607 36.8149 16.2859H21.9497C21.971 13.8272 21.7682 2.62009 22.4467 2.0342ZM36.7273 19.5259H21.9547V18.1638H36.736C36.7248 18.6233 36.721 19.0777 36.7273 19.5259ZM15.3797 18.1638H20.0719V19.5259H15.7428C15.6797 19.0584 15.5577 18.6007 15.3797 18.1638ZM2.80929 9.32407H20.0719V16.2859H14.1328C12.0196 14.0913 8.24884 14.0913 6.13186 16.2859H2.80929V9.43174C2.80929 9.38917 2.80929 9.35286 2.80929 9.32407ZM1.87411 19.7525V18.2615C1.87411 18.2346 1.88479 18.2088 1.90381 18.1898C1.92283 18.1707 1.94862 18.1601 1.97551 18.1601H4.88495C4.66571 18.6995 4.53141 19.2696 4.48685 19.8501H1.98303C1.96971 19.8506 1.95642 19.8485 1.94392 19.8439C1.93143 19.8392 1.91997 19.8322 1.9102 19.8231C1.90043 19.814 1.89255 19.8031 1.887 19.791C1.88145 19.7789 1.87835 19.7658 1.87787 19.7525H1.87411ZM10.128 24.0778C9.12431 24.0765 8.16215 23.6772 7.45247 22.9675C6.74278 22.2579 6.3435 21.2957 6.34218 20.2921C6.54999 15.2694 13.7072 15.2706 13.915 20.2921C13.9137 21.2953 13.5147 22.257 12.8056 22.9667C12.0964 23.6763 11.1349 24.0758 10.1317 24.0778H10.128ZM43.4062 24.0778C42.4026 24.0765 41.4404 23.6772 40.7307 22.9675C40.0211 22.2579 39.6218 21.2957 39.6204 20.2921C39.8283 15.2694 46.9854 15.2706 47.192 20.2921C47.191 21.2952 46.7923 22.2569 46.0834 22.9666C45.3745 23.6762 44.4131 24.0758 43.41 24.0778H43.4062ZM49.1412 19.8539C49.1116 19.852 49.0819 19.852 49.0523 19.8539C48.693 15.0528 42.7803 12.877 39.4064 16.2809H38.6928C38.8305 13.9286 39.1034 11.3709 39.1936 9.09372C39.9985 9.38166 45.3216 9.97757 47.3497 10.3694C47.1644 10.652 47.0665 10.9829 47.0681 11.3209C47.0681 12.3024 47.3898 13.9361 47.4036 14.005C47.4471 14.2171 47.5626 14.4078 47.7305 14.5446C47.8984 14.6815 48.1084 14.7562 48.325 14.7561H50.7775C50.7612 16.952 50.6786 18.9613 50.5271 19.8439L49.1412 19.8539Z" fill="#ED1C24"></path><path d="M10.1317 17.4629C9.38179 17.4642 8.66304 17.7628 8.13293 18.2931C7.60282 18.8235 7.30458 19.5423 7.30359 20.2922C7.45883 24.0479 12.812 24.0479 12.961 20.2922C12.96 19.5421 12.6616 18.8231 12.1312 18.2927C11.6008 17.7623 10.8817 17.4639 10.1317 17.4629ZM10.1317 21.2424C9.87975 21.2421 9.63825 21.1419 9.46013 20.9637C9.282 20.7856 9.18178 20.5441 9.18145 20.2922C9.22652 19.0328 11.0393 19.0328 11.0831 20.2922C11.0828 20.5443 10.9824 20.786 10.804 20.9642C10.6256 21.1423 10.3838 21.2424 10.1317 21.2424Z" fill="#ED1C24"></path><path d="M43.41 17.4629C42.66 17.4639 41.9411 17.7623 41.4109 18.2928C40.8807 18.8232 40.5826 19.5422 40.5819 20.2922C40.7371 24.0479 46.0841 24.0479 46.2393 20.2922C46.2383 19.5421 45.9399 18.8231 45.4095 18.2927C44.8791 17.7623 44.16 17.4639 43.41 17.4629ZM43.41 21.2424C43.158 21.2424 42.9163 21.1423 42.7381 20.9641C42.5599 20.7859 42.4598 20.5442 42.4598 20.2922C42.5036 19.0328 44.3164 19.0328 44.3614 20.2922C44.3611 20.5443 44.2607 20.786 44.0823 20.9642C43.9039 21.1423 43.6621 21.2424 43.41 21.2424Z" fill="#ED1C24"></path><path d="M24.3083 9.97506H34.7906C35.4967 9.99634 35.9799 9.1488 35.5968 8.55289C35.1411 7.79298 32.2943 4.44037 31.1313 3.67795C29.3373 2.50241 27.5132 2.50992 25.206 2.51868C24.6013 2.51868 23.9791 2.4323 23.6962 3.11209C23.1679 4.55053 23.5797 7.20083 23.3732 8.951C23.3623 9.08075 23.3784 9.21135 23.4203 9.33461C23.4623 9.45786 23.5293 9.57112 23.6171 9.66727C23.7049 9.76342 23.8116 9.84039 23.9306 9.89335C24.0495 9.94632 24.1781 9.97413 24.3083 9.97506ZM25.3299 4.3953C29.6177 4.31017 30.0872 4.88605 32.8652 8.09719H25.3024C25.3437 6.8891 25.2473 5.49197 25.3299 4.3953Z" fill="#ED1C24"></path></svg>